HIERARCHY
ROOT Hips
{
  OFFSET -85.0482 97.2525 -98.7547
  CHANNELS 6 Xposition Yposition Zposition Zrotation Xrotation Yrotation
  JOINT RightUpLeg
  {
    OFFSET -8.9458 -8.66707 0.101652
    CHANNELS 3 Zrotation Xrotation Yrotation
    JOINT RightLeg
    {
      OFFSET 0 -44.4227 1.3727
      CHANNELS 3 Zrotation Xrotation Yrotation
      JOINT RightFoot
      {
        OFFSET 0.253549 -42.0924 -1.46059
        CHANNELS 3 Zrotation Xrotation Yrotation
        JOINT RightToes
        {
          OFFSET 0.04 -4.41509 8.4991
          CHANNELS 3 Zrotation Xrotation Yrotation
          End Site
          {
            OFFSET -0.08 -0.137448 9.77979
          }
        }
      }
    }
  }
  JOINT Spine
  {
    OFFSET 0 11.8905 0
    CHANNELS 3 Zrotation Xrotation Yrotation
    JOINT Spine1
    {
      OFFSET 0 25.6574 0.127663
      CHANNELS 3 Zrotation Xrotation Yrotation
      JOINT HEad
      {
        OFFSET 0 8.73416 0.011341
        CHANNELS 3 Zrotation Xrotation Yrotation
        End Site
        {
          OFFSET -0.29 12.7742 2.51395
        }
      }
      JOINT LeftShoulder1
      {
        OFFSET 8.99 -0.362252 -0.22
        CHANNELS 3 Zrotation Xrotation Yrotation
        JOINT LeftArm
        {
          OFFSET 10.2827 -0.00338 0.322123
          CHANNELS 3 Zrotation Xrotation Yrotation
          JOINT LeftForeArm
          {
            OFFSET 32.7669 0.099144 -1.42434
            CHANNELS 3 Zrotation Xrotation Yrotation
            JOINT LeftHand
            {
              OFFSET 27.5643 0.085362 1.02216
              CHANNELS 3 Zrotation Xrotation Yrotation
              End Site
              {
                OFFSET 16.7443 -0.6 1.50291
              }
            }
          }
        }
      }
      JOINT RightShoulder
      {
        OFFSET -8.99 -0.362252 -0.22
        CHANNELS 3 Zrotation Xrotation Yrotation
        JOINT RightArm
        {
          OFFSET -10.2827 -0.00338 0.322123
          CHANNELS 3 Zrotation Xrotation Yrotation
          JOINT RightForeArm
          {
            OFFSET -32.8971 0.099144 -1.42434
            CHANNELS 3 Zrotation Xrotation Yrotation
            JOINT RightHand
            {
              OFFSET -27.4921 0.085362 1.02216
              CHANNELS 3 Zrotation Xrotation Yrotation
              End Site
              {
                OFFSET -16.6312 -0.6 1.50291
              }
            }
          }
        }
      }
    }
  }
  JOINT LeftUpLeg
  {
    OFFSET 8.9458 -8.66707 0.101652
    CHANNELS 3 Zrotation Xrotation Yrotation
    JOINT LeftLeg
    {
      OFFSET 0 -44.4227 1.3727
      CHANNELS 3 Zrotation Xrotation Yrotation
      JOINT LeftFoot
      {
        OFFSET -0.253549 -42.0924 -1.46059
        CHANNELS 3 Zrotation Xrotation Yrotation
        JOINT LeftToes
        {
          OFFSET -0.04 -4.41509 8.4991
          CHANNELS 3 Zrotation Xrotation Yrotation
          End Site
          {
            OFFSET 0.08 -0.047448 9.77979
          }
        }
      }
    }
  }
}
MOTION
Frames:	7
Frame Time:	0.0166667
-147.94 79.1497 -87.1556 -5.70683 -8.27498 -20.4674 -17.9413 7.73117 1.42623 12.0626 44.3721 -13.8339 -4.24489 -8.2973 -0.199851 -45.9308 -47.6584 -30.3449 0.382331 11.2002 3.49647 2.07067 22.1395 7.27735 -5.81715 -12.3962 16.1063 -7.95139e-016 0 -0 -68.6954 -30.3978 -0.454019 -10.6083 32.7291 -108.883 17.4459 3.61556 -36.8422 13.3968 3.65132 19.6702 74.2602 -26.1472 50.5017 -20.3116 37.2239 146.972 -13.0081 14.6971 -47.7481 16.0613 -43.9724 -0.106443 26.2556 72.7355 -40.5827 -29.7141 15.2761 5.93428 20.9262 -35.2414 -12.7812 
-147.018 79.2738 -87.0447 -5.09573 -8.39822 -20.7757 -19.3461 7.47112 1.37162 11.4996 43.8786 -12.7343 -4.16276 -7.00636 -0.1435 -46.6624 -47.8971 -31.0557 0.311922 11.1867 3.45337 1.76007 22.0983 7.22945 -5.93739 -12.6065 16.3687 1.59028e-015 9.54166e-015 1.59028e-015 -67.8864 -29.2638 -1.19473 -9.12787 32.1518 -110.6 18.2885 3.61377 -35.0059 13.3524 3.65898 19.7677 74.189 -27.1842 50.5612 -19.4043 39.1287 145.93 -14.2483 14.9842 -46.2559 17.2393 -45.2687 0.573994 22.4526 73.2408 -38.3195 -31.9288 17.8159 7.11165 19.322 -35.6946 -17.1687 
-145.958 79.7207 -86.7231 -4.42137 -8.17921 -21.5356 -20.6195 6.86665 1.42011 10.2577 42.9512 -10.7041 -3.65721 -5.46946 -0.0869161 -46.6997 -47.9223 -31.0681 0.171643 11.0205 3.52592 1.38704 21.7456 7.39933 -6.21716 -12.6082 16.796 7.95139e-016 3.18055e-015 -0 -66.3573 -28.5013 -1.44592 -8.14429 31.5079 -112.282 18.5882 3.81481 -33.2438 13.3841 3.67308 19.8149 73.7902 -27.7972 50.2217 -18.3634 40.7755 144.657 -15.363 15.1953 -44.7856 18.803 -46.1108 1.35249 17.3026 73.1539 -34.1665 -32.6009 18.8706 7.57186 17.6488 -34.5452 -19.6714 
-144.758 80.4571 -86.221 -3.71792 -7.60325 -22.7914 -21.6352 5.86172 1.54605 8.25854 41.5719 -7.83695 -2.74429 -3.63744 -0.0484663 -46.1039 -47.7434 -30.463 -0.0426173 10.6988 3.69587 0.997965 21.0663 7.75207 -6.66251 -12.4348 17.4151 -3.18055e-015 0 -1.59028e-015 -63.9139 -28.4588 -1.01604 -7.96841 31.0845 -113.659 18.1253 4.219 -31.8144 13.522 3.70145 19.8232 73.0134 -27.8899 49.4737 -17.3291 41.9704 143.285 -16.2473 15.3256 -43.508 20.6385 -46.4272 2.11502 11.6033 72.3312 -28.7039 -31.3737 18.4189 7.14458 16.2661 -32.0454 -19.7446 
-143.436 81.4193 -85.5784 -3.00926 -6.68751 -24.522 -22.3003 4.45499 1.69682 5.54608 39.7338 -4.34227 -1.41412 -1.49942 -0.0550413 -44.9607 -47.3759 -29.3165 -0.321777 10.2277 3.92842 0.645338 20.0689 8.2147 -7.23868 -12.1462 18.253 -1.59028e-015 9.54166e-015 -0 -60.3141 -29.6322 0.229398 -8.78875 31.2863 -114.399 16.9041 4.76387 -30.932 13.8065 3.75862 19.8317 71.8416 -27.4695 48.347 -16.4038 42.6474 141.935 -16.8808 15.3923 -42.4988 22.5781 -46.1638 2.69981 6.3667 70.586 -22.8975 -28.6947 16.802 6.09676 14.9557 -28.408 -17.8413 
-142.022 82.5174 -84.8321 -2.31707 -5.48239 -26.6348 -22.5729 2.72462 1.81567 2.33149 37.4475 -0.568174 0.332544 0.888828 -0.140523 -43.3381 -46.8243 -27.6746 -0.640639 9.62045 4.17728 0.385903 18.7878 8.68419 -7.87235 -11.8038 19.3304 1.76556e-031 -3.18055e-015 3.18055e-015 -55.2567 -32.4712 2.38375 -10.6959 32.4686 -114.038 15.1781 5.34976 -30.7242 14.2943 3.86648 19.901 70.2654 -26.6304 46.8884 -15.6003 42.8425 140.675 -17.2868 15.413 -41.7486 24.4202 -45.2873 2.94177 2.5347 67.7562 -17.8266 -25.5358 14.7055 4.93118 13.4581 -24.1216 -14.9066 
-140.566 83.6438 -84.007 -1.66806 -4.06768 -28.9593 -22.4711 0.817371 1.86467 -1.00595 34.8096 3.00324 2.41273 3.38024 -0.331733 -41.2542 -46.0422 -25.5748 -0.968031 8.89668 4.39024 0.272368 17.2807 9.04155 -8.46062 -11.4395 20.6453 7.95139e-016 -3.18055e-015 -0 -48.4296 -37.0495 5.49668 -13.6649 34.6569 -111.992 13.4371 5.85382 -31.1448 15.0582 4.05342 20.0998 68.253 -25.5154 45.1321 -14.8417 42.625 139.52 -17.4774 15.3922 -41.2146 25.9452 -43.8078 2.74352 0.699979 63.8012 -14.3615 -22.8324 12.9476 4.04275 11.9392 -20.1304 -11.8216 
